<?xml version="1.0" encoding="iso-8859-1"?>
<!-- Generator: Adobe Illustrator 19.0.0, SVG Export Plug-In . SVG Version: 6.00 Build 0)  -->
<svg version="1.1" id="Capa_1" xmlns="http://www.w3.org/2000/svg" xmlns:xlink="http://www.w3.org/1999/xlink" x="0px" y="0px"
	 viewBox="0 0 512 512" style="enable-background:new 0 0 512 512;" xml:space="preserve">
<path style="fill:#18A7FC;" d="M509.04,156c-3.001-3.9-7.202-6-12.001-6h-360c-8.401,0-15,6.599-15,15v212c0,8.399,6.599,15,15,15
	h300l14.399-10.8l60-212C512.64,164.7,511.739,159.6,509.04,156z"/>
<path style="fill:#1689FC;" d="M509.04,156c-3.001-3.9-7.202-6-12.001-6h-180v242h120l14.399-10.8l60-212
	C512.64,164.7,511.739,159.6,509.04,156z"/>
<path style="fill:#FEDB41;" d="M317.039,60c-57.9,0-105,47.1-105,105s47.1,105,105,105s105-47.1,105-105S374.939,60,317.039,60z"/>
<path style="fill:#FFCC33;" d="M422.039,165c0,57.9-47.1,105-105,105V60C374.939,60,422.039,107.1,422.039,165z"/>
<path style="fill:#C5C9F7;" d="M452.039,437c0,8.399-6.599,15-15,15h-300c-24.901,0-46-20.101-46-45c0-24.901,21.099-45,46-45h300
	c8.401,0,15,6.599,15,15c0,8.399-6.599,15-15,15h-300c-8.401,0-15,6.599-15,15c0,8.399,6.599,15,15,15h300
	C445.44,422,452.039,428.599,452.039,437z"/>
<g>
	<path style="fill:#A8AFF1;" d="M452.039,437c0,8.399-6.599,15-15,15h-120v-30h120C445.44,422,452.039,428.599,452.039,437z"/>
	<path style="fill:#A8AFF1;" d="M437.039,392h-120v-30h120c8.401,0,15,6.599,15,15C452.039,385.399,445.44,392,437.039,392z"/>
</g>
<path style="fill:#C5C9F7;" d="M137.039,392c-8.291,0-15-6.709-15-15V75c0-8.276-6.724-15-15-15h-32c-8.291,0-15-6.709-15-15
	s6.709-15,15-15h32c24.814,0,45,20.186,45,45v302C152.039,385.291,145.33,392,137.039,392z"/>
<path style="fill:#18A7FC;" d="M45.039,90c-24.814,0-45-20.186-45-45s20.186-45,45-45s45,20.186,45,45S69.854,90,45.039,90z"/>
<path style="fill:#0D70B2;" d="M362.039,165c0,8.399-6.599,15-15,15h-15v15c0,8.399-6.599,15-15,15s-15-6.601-15-15v-15h-15
	c-8.401,0-15-6.601-15-15c0-8.401,6.599-15,15-15h15v-15c0-8.401,6.599-15,15-15s15,6.599,15,15v15h15
	C355.44,150,362.039,156.599,362.039,165z"/>
<path style="fill:#18A7FC;" d="M167.039,422c-24.901,0-45,20.099-45,45c0,24.899,20.099,45,45,45s45-20.101,45-45
	C212.039,442.099,191.94,422,167.039,422z"/>
<path style="fill:#E6EEFF;" d="M167.039,452c-8.401,0-15,6.599-15,15c0,8.399,6.599,15,15,15s15-6.601,15-15
	C182.039,458.599,175.44,452,167.039,452z"/>
<path style="fill:#1689FC;" d="M212.039,467c0,24.899-20.099,45-45,45v-90C191.94,422,212.039,442.099,212.039,467z"/>
<path style="fill:#DAE2F2;" d="M182.039,467c0,8.399-6.599,15-15,15v-30C175.44,452,182.039,458.599,182.039,467z"/>
<path style="fill:#18A7FC;" d="M437.039,422c-24.901,0-45,20.099-45,45c0,24.899,20.099,45,45,45s45-20.101,45-45
	C482.039,442.099,461.94,422,437.039,422z"/>
<path style="fill:#E6EEFF;" d="M437.039,452c-8.401,0-15,6.599-15,15c0,8.399,6.599,15,15,15s15-6.601,15-15
	C452.039,458.599,445.44,452,437.039,452z"/>
<path style="fill:#1689FC;" d="M482.039,467c0,24.899-20.099,45-45,45v-90C461.94,422,482.039,442.099,482.039,467z"/>
<path style="fill:#DAE2F2;" d="M452.039,467c0,8.399-6.599,15-15,15v-30C445.44,452,452.039,458.599,452.039,467z"/>
<path style="fill:#095C92;" d="M362.039,165c0,8.399-6.599,15-15,15h-15v15c0,8.399-6.599,15-15,15v-90c8.401,0,15,6.599,15,15v15
	h15C355.44,150,362.039,156.599,362.039,165z"/>
<g>
</g>
<g>
</g>
<g>
</g>
<g>
</g>
<g>
</g>
<g>
</g>
<g>
</g>
<g>
</g>
<g>
</g>
<g>
</g>
<g>
</g>
<g>
</g>
<g>
</g>
<g>
</g>
<g>
</g>
</svg>
